<?xml version="1.0" encoding="UTF-8"?>
<svg width="1200pt" height="1200pt" version="1.1" viewBox="0 0 1200 1200" xmlns="http://www.w3.org/2000/svg">
 <g fill="#367019">
  <path d="m914.4 48v141.6h141.6z"/>
  <path d="m884.4 249.6c-16.801 0-30-13.199-30-30v-189.6h-448.8c-31.199 0-56.398 25.199-56.398 56.398v578.4c156 0 283.2 127.2 283.2 283.2v12h385.2c31.199 0 56.398-25.199 56.398-56.398v-654zm-378-60h204c16.801 0 30 13.199 30 30 0 16.801-13.199 30-30 30h-204c-16.801 0-30-13.199-30-30 0-16.801 13.203-30 30-30zm409.2 610.8h-211.2c-16.801 0-30-13.199-30-30 0-16.801 13.199-30 30-30h212.4c16.801 0 30 13.199 30 30-1.1953 15.602-14.398 30-31.195 30zm0-183.6h-409.2c-16.801 0-30-13.199-30-30s13.199-30 30-30h409.2c16.801 0 30 13.199 30 30 0.003906 15.598-13.199 30-29.996 30zm0-183.6h-409.2c-16.801 0-30-13.199-30-30s13.199-30 30-30h409.2c16.801 0 30 13.199 30 30 0.003906 16.801-13.199 30-29.996 30z"/>
  <path d="m349.2 724.8c-123.6 0-223.2 99.602-223.2 223.2 0 123.6 99.602 223.2 223.2 223.2 123.6 0 223.2-99.602 223.2-223.2 0-123.6-99.598-223.2-223.2-223.2zm110.4 186-115.2 115.2c-6 6-13.199 8.3984-21.602 8.3984-8.3984 0-15.602-2.3984-21.602-8.3984l-63.602-63.602c-12-12-12-31.199 0-43.199s31.199-12 43.199 0l42 42 94.801-94.801c12-12 31.199-12 43.199 0 10.805 13.203 10.805 32.402-1.1953 44.402z"/>
 </g>
</svg>
